HIERARCHY
ROOT Hips
{
	OFFSET 0.000000 0.000000 0.000000
	CHANNELS 6 Xposition Yposition Zposition Zrotation Yrotation Xrotation 
	JOINT LHipJoint
	{
		OFFSET 0.000000 0.000000 0.000000
		CHANNELS 3 Zrotation Yrotation Xrotation
		JOINT LeftUpLeg
		{
			OFFSET 1.363060 -1.794630 0.839290
			CHANNELS 3 Zrotation Yrotation Xrotation
			JOINT LeftLeg
			{
				OFFSET 2.448110 -6.726130 0.000000
				CHANNELS 3 Zrotation Yrotation Xrotation
				JOINT LeftFoot
				{
					OFFSET 2.562200 -7.039590 0.000000
					CHANNELS 3 Zrotation Yrotation Xrotation
					JOINT LeftToeBase
					{
						OFFSET 0.157640 -0.433110 2.322550
						CHANNELS 3 Zrotation Yrotation Xrotation
						End Site
						{
							OFFSET 0.000000 0.000000 0.000000
						}
					}
				}
			}
		}
	}
	JOINT RHipJoint
	{
		OFFSET 0.000000 0.000000 0.000000
		CHANNELS 3 Zrotation Yrotation Xrotation
		JOINT RightUpLeg
		{
			OFFSET -1.305520 -1.794630 0.839290
			CHANNELS 3 Zrotation Yrotation Xrotation
			JOINT RightLeg
			{
				OFFSET -2.542530 -6.985550 0.000000
				CHANNELS 3 Zrotation Yrotation Xrotation
				JOINT RightFoot
				{
					OFFSET -2.568260 -7.056230 0.000000
					CHANNELS 3 Zrotation Yrotation Xrotation
					JOINT RightToeBase
					{
						OFFSET -0.164730 -0.452590 2.363150
						CHANNELS 3 Zrotation Yrotation Xrotation
						End Site
						{
							OFFSET 0.000000 0.000000 0.000000
						}
					}
				}
			}
		}
	}
}
MOTION
Frames: 28
Frame Time: 0.008333
-11.257329 16.675303 -0.560231 96.103417 88.058831 105.827070 -12.018273 5.000453 0.754674 -5.654757 8.894935 3.151208 -0.852167 1.645691 27.873994 0.124638 -3.383283 8.534647 -0.826000 0.000000 -86.145500 8.057109 -1.054128 3.369136 9.573433 3.184672 -39.844404 1.713576 -1.795813 31.058123 -1.376702 -4.992958 -5.621311 -0.695401 0.000000 -14.355600
-11.095359 16.645709 -0.546158 116.147790 88.866090 125.691647 -11.846888 4.966512 0.634776 -4.498727 9.512629 2.158009 -0.632606 1.781500 30.568693 0.185465 -3.844100 9.951495 -1.075900 -0.000000 -87.374400 8.306586 -1.118904 3.277107 10.429210 2.990825 -39.863538 1.731324 -2.003554 32.812874 -1.405424 -4.919258 -6.622544 -0.545900 -0.000000 -13.423400
-10.938433 16.613675 -0.532380 11.750011 87.991029 21.229101 -12.171754 5.891353 0.548084 -3.685479 10.739570 0.795988 -0.868607 2.326891 33.047835 0.343633 -4.097679 11.412442 -1.352100 0.000000 -87.679200 8.411463 -0.194347 2.892196 11.324430 3.385123 -39.485993 1.528180 -1.767241 34.773714 -1.340394 -4.556085 -7.666315 -0.375400 -0.000000 -12.480200
-10.786664 16.579211 -0.518690 50.100230 88.521694 59.255273 -13.263704 5.416279 0.461920 -2.776849 11.320010 -0.241909 -0.425117 2.270168 36.046304 0.438694 -4.417023 12.996138 -1.620600 -0.000001 -86.920500 7.437798 -0.880035 2.736684 11.751880 2.900282 -39.379899 1.617400 -1.984485 36.412099 -1.391818 -4.402601 -9.080786 -0.192200 0.000000 -11.568500
-10.639872 16.542615 -0.504904 59.174720 89.227729 68.048177 -13.534028 5.164649 0.290291 -1.547639 11.965007 -1.366845 -0.143076 2.342145 39.105167 0.562037 -4.504158 14.447664 -1.835701 0.000000 -85.022100 7.234701 -1.147854 2.589199 12.598558 2.641692 -39.066174 1.693434 -2.154247 37.854396 -1.442451 -4.285690 -10.520443 -0.004200 -0.000000 -10.730599
-10.497665 16.504365 -0.491152 62.487331 89.884195 71.078419 -13.783098 4.963600 0.104174 -0.302785 12.608341 -2.553536 0.082583 2.455256 42.205252 0.705452 -4.301076 15.718598 -1.947500 0.000001 -81.993700 7.057961 -1.324329 2.414822 13.521786 2.438163 -38.615275 1.761120 -2.275737 39.150652 -1.498361 -4.193444 -11.962659 0.182000 0.000000 -9.993400
-10.359836 16.465207 -0.476400 -116.303723 89.486057 -108.001790 -14.019281 4.762441 -0.087074 0.891322 13.181894 -3.769736 0.277876 2.589750 45.327047 0.858711 -3.744926 16.716996 -1.901800 -0.000000 -77.936799 6.884203 -1.469840 2.224320 14.453501 2.220994 -38.069813 1.825209 -2.372109 40.302829 -1.561340 -4.133386 -13.366535 0.363900 -0.000000 -9.395100
-10.225589 16.426088 -0.461725 -115.689169 88.836793 -107.671053 -14.250441 4.539284 -0.278008 2.065030 13.683158 -5.032845 0.456776 2.738820 48.462314 1.014435 -2.839066 17.356035 -1.678899 -0.000000 -73.075900 6.695912 -1.616914 2.037808 15.419427 2.018717 -37.444827 1.890086 -2.451763 41.274269 -1.638793 -4.153353 -14.675944 0.539000 -0.000000 -8.931000
-10.094575 16.388120 -0.446087 -115.460693 88.202728 -107.716474 -14.461646 4.302375 -0.462019 3.149973 14.088002 -6.331852 0.622996 2.904494 51.569280 1.168985 -1.575629 17.581471 -1.272000 0.000000 -67.697200 6.510697 -1.759054 1.856450 16.366347 1.811098 -36.770648 1.950022 -2.518181 42.088276 -1.725408 -4.239084 -15.863872 0.707600 0.000000 -8.608200
-9.966250 16.352496 -0.429737 -115.335452 87.585280 -107.845548 -14.652418 4.052886 -0.634279 4.132977 14.396920 -7.674291 0.783244 3.084328 54.617952 1.320519 -0.004888 17.367377 -0.714399 0.000000 -62.117400 6.329325 -1.900028 1.689508 17.286033 1.618494 -36.065684 2.004443 -2.573784 42.745151 -1.820653 -4.397178 -16.910188 0.869800 -0.000000 -8.397800
-9.840150 16.320464 -0.412503 -115.219997 86.998378 -107.957149 -14.819127 3.795907 -0.790614 4.987980 14.608215 -9.061019 0.941711 3.274737 57.573981 1.468871 1.802157 16.720233 -0.062400 -0.000001 -56.612800 6.158019 -2.037647 1.542114 18.157270 1.452397 -35.347299 2.052488 -2.620085 43.256570 -1.921459 -4.617241 -17.812840 1.026000 0.000000 -8.262299
-9.715675 16.293062 -0.395154 -114.967387 86.430719 -107.893744 -14.967850 3.529644 -0.928122 5.731230 14.734667 -10.501540 1.101767 3.469954 60.411661 1.613588 3.741575 15.668265 0.608500 -0.000000 -51.379600 5.989196 -2.177049 1.424028 18.996169 1.349420 -34.621159 2.097326 -2.657933 43.615748 -2.028972 -4.903085 -18.576784 1.177400 0.000000 -8.151500
-9.592746 16.271337 -0.376673 -114.678733 85.920071 -107.758724 -15.086528 3.265437 -1.045469 6.308829 14.767809 -11.979531 1.261717 3.664950 63.093801 1.754832 5.733513 14.263008 1.233800 -0.000000 -46.515200 5.841841 -2.306176 1.329611 19.750540 1.289165 -33.901614 2.137399 -2.687952 43.856137 -2.135302 -5.211515 -19.231592 1.322500 -0.000000 -8.024800
-9.470936 16.256023 -0.357960 -114.257196 85.447556 -107.448913 -15.183025 2.999637 -1.141646 6.754606 14.724053 -13.500149 1.420567 3.853280 65.599414 1.890396 7.670558 12.561609 1.747601 -0.000000 -42.043500 5.705151 -2.430589 1.265341 20.447128 1.303260 -33.180690 2.177805 -2.709738 43.963622 -2.242660 -5.544118 -19.795082 1.462900 0.000000 -7.839500
-9.350076 16.247647 -0.338986 -113.724476 85.016771 -106.987711 -15.256412 2.734844 -1.216397 7.071006 14.607945 -15.053663 1.574397 4.029684 67.902434 2.017430 9.470814 10.631720 2.107600 0.000000 -37.944900 5.580783 -2.547787 1.228870 21.081385 1.390237 -32.452102 2.221160 -2.722572 43.940230 -2.348996 -5.881845 -20.291963 1.598500 -0.000000 -7.570600
-9.230193 16.246561 -0.319144 -113.159764 84.647085 -106.463226 -15.300094 2.478314 -1.271087 7.238845 14.417555 -16.617802 1.717421 4.189425 69.974896 2.132600 11.076547 8.543762 2.295500 0.000000 -34.177400 5.479584 -2.650513 1.210392 21.625047 1.520784 -31.709768 2.268117 -2.725572 43.799368 -2.449021 -6.192317 -20.749798 1.727900 0.000000 -7.209500
-9.111054 16.252855 -0.299035 -112.542165 84.319492 -105.856597 -15.320211 2.227191 -1.305308 7.296265 14.162730 -18.185979 1.845063 4.328797 71.798884 2.231003 12.428557 6.368653 2.309000 0.000000 -30.712900 5.391750 -2.742639 1.209216 22.104590 1.700748 -30.933021 2.322686 -2.716863 43.517432 -2.544835 -6.480489 -21.174326 1.851900 -0.000000 -6.761700
-8.992614 16.266441 -0.278548 -111.919877 84.034300 -105.224078 -15.316141 1.984029 -1.319581 7.252724 13.844577 -19.740159 1.951933 4.444965 73.354140 2.308361 13.496545 4.175571 2.168100 0.000000 -27.537700 5.318118 -2.822271 1.218336 22.518237 1.910462 -30.105661 2.386054 -2.694488 43.083995 -2.634903 -6.738476 -21.569074 1.968900 0.000000 -6.248000
-8.874825 16.287109 -0.257269 -111.359526 83.800407 -104.642943 -15.284942 1.753425 -1.315269 7.105426 13.461484 -21.257770 2.032930 4.535661 74.622809 2.361585 14.272681 2.028144 1.907700 -0.000000 -24.650200 5.264040 -2.885922 1.227657 22.852167 2.116632 -29.214674 2.457674 -2.656685 42.495107 -2.715874 -6.954658 -21.931342 2.075700 0.000000 -5.706200
-8.757496 16.314540 -0.235194 -110.893073 83.613105 -104.150592 -15.228160 1.535975 -1.292789 6.869607 13.016257 -22.724666 2.084671 4.599490 75.593385 2.388758 14.761008 -0.016662 1.569200 0.000001 -22.067400 5.227327 -2.934155 1.232426 23.112269 2.304220 -28.246077 2.537501 -2.601366 41.733510 -2.787373 -7.134572 -22.244836 2.169400 0.000000 -5.180100
-8.640400 16.348359 -0.212167 -110.559848 83.474131 -103.791475 -15.145509 1.333234 -1.253081 6.550182 12.510968 -24.126666 2.104862 4.635455 76.257636 2.390160 14.984442 -1.912048 1.195300 0.000001 -19.807600 5.209048 -2.966493 1.227720 23.295997 2.454772 -27.191475 2.624001 -2.526748 40.788052 -2.847970 -7.282060 -22.489045 2.245700 -0.000000 -4.717400
-8.523246 16.388094 -0.188035 -110.390283 83.385780 -103.599741 -15.036404 1.146599 -1.197114 6.149218 11.949439 -25.451555 2.092708 4.642923 76.612237 2.368452 14.981254 -3.624430 0.823099 -0.000000 -17.876600 5.211008 -2.982813 1.210958 23.399350 2.554812 -26.047225 2.714844 -2.431439 39.651852 -2.896144 -7.401663 -22.642228 2.300300 0.000000 -4.361300
-8.405686 16.433256 -0.162595 -110.403134 83.352604 -103.594504 -14.900021 0.976794 -1.126621 5.664794 11.337169 -26.690770 2.048647 4.621748 76.658218 2.328296 14.800166 -5.136045 0.479999 -0.000000 -16.259000 5.235747 -2.983020 1.181181 23.416076 2.596287 -24.816079 2.806911 -2.314629 38.323911 -2.930354 -7.497767 -22.684013 2.329300 -0.000000 -4.143600
-8.287349 16.483327 -0.135729 -110.602277 83.379717 -103.779247 -14.735412 0.824351 -1.043617 5.093344 10.682365 -27.837494 1.974279 4.572213 76.401193 2.275962 14.496594 -6.444410 0.181400 -0.000000 -14.915800 5.286388 -2.967360 1.139735 23.339209 2.576960 -23.505938 2.896639 -2.176260 36.810473 -2.949108 -7.572861 -22.599725 2.329301 0.000000 -4.080000
-8.167779 16.537746 -0.107348 -110.977213 83.472815 -104.139120 -14.541787 0.688849 -0.951158 4.430264 9.995698 -28.888421 1.871921 4.495229 75.849767 2.218603 14.127697 -7.560883 -0.067800 -0.000001 -13.792800 5.366080 -2.936257 1.089307 23.161569 2.501336 -22.129901 2.980213 -2.017142 35.124794 -2.951172 -7.627527 -22.381557 2.298300 -0.000000 -4.168800
-8.046595 16.595909 -0.077418 -111.501522 83.637260 -104.643820 -14.318825 0.569651 -0.852570 3.672756 9.290221 -29.841102 1.744446 4.392263 75.014966 2.163278 13.746333 -8.506544 -0.271000 -0.000000 -12.832000 5.477667 -2.890617 1.033836 22.877293 2.378278 -20.703512 3.053814 -1.839059 33.287224 -2.935733 -7.660317 -22.030148 2.236000 -0.000000 -4.392900
-7.923457 16.657145 -0.046014 -112.131618 83.876352 -105.244510 -14.066687 0.465340 -0.751897 2.821459 8.581394 -30.695345 1.595094 4.265366 73.909309 2.116416 13.398090 -9.307184 -0.435900 -0.000001 -11.986200 5.623136 -2.831895 0.977688 22.484325 2.220842 -19.244180 3.114105 -1.644806 31.323208 -2.902484 -7.668012 -21.553658 2.143800 0.000000 -4.723400
-7.798277 16.720583 -0.013306 -112.805423 84.190857 -105.878602 -13.786153 0.375190 -0.652436 1.882778 7.886832 -31.449757 1.427466 4.116833 72.546939 2.082961 13.116436 -9.988642 -0.572100 -0.000000 -11.224600 5.803937 -2.762438 0.925844 21.984019 2.042115 -17.767594 3.158238 -1.438277 29.264700 -2.851677 -7.646123 -20.968123 2.025000 -0.000000 -5.126500
